<mxfile host="Electron" agent="Mozilla/5.0 (Macintosh; Intel Mac OS X 10_15_7) AppleWebKit/537.36 (KHTML, like Gecko) draw.io/25.0.2 Chrome/128.0.6613.186 Electron/32.2.5 Safari/537.36" version="25.0.2">
  <diagram id="C5RBs43oDa-KdzZeNtuy" name="Page-1">
    <mxGraphModel dx="892" dy="1815" grid="1" gridSize="10" guides="1" tooltips="1" connect="1" arrows="1" fold="1" page="1" pageScale="1" pageWidth="827" pageHeight="1169" math="0" shadow="0">
      <root>
        <mxCell id="WIyWlLk6GJQsqaUBKTNV-0" />
        <mxCell id="WIyWlLk6GJQsqaUBKTNV-1" parent="WIyWlLk6GJQsqaUBKTNV-0" />
        <mxCell id="kLrHRbWmEp7JiRQYxrCo-6" style="edgeStyle=orthogonalEdgeStyle;rounded=0;orthogonalLoop=1;jettySize=auto;html=1;entryX=0.5;entryY=0;entryDx=0;entryDy=0;" edge="1" parent="WIyWlLk6GJQsqaUBKTNV-1" source="WIyWlLk6GJQsqaUBKTNV-3" target="kLrHRbWmEp7JiRQYxrCo-5">
          <mxGeometry relative="1" as="geometry" />
        </mxCell>
        <mxCell id="WIyWlLk6GJQsqaUBKTNV-3" value="Display public timeline" style="rounded=1;whiteSpace=wrap;html=1;arcSize=40;fontSize=12;glass=0;strokeWidth=1;shadow=0;fillColor=#eeeeee;strokeColor=#36393d;" parent="WIyWlLk6GJQsqaUBKTNV-1" vertex="1">
          <mxGeometry x="340" y="80" width="120" height="40" as="geometry" />
        </mxCell>
        <mxCell id="kLrHRbWmEp7JiRQYxrCo-33" style="edgeStyle=orthogonalEdgeStyle;rounded=0;orthogonalLoop=1;jettySize=auto;html=1;" edge="1" parent="WIyWlLk6GJQsqaUBKTNV-1" source="kLrHRbWmEp7JiRQYxrCo-2" target="kLrHRbWmEp7JiRQYxrCo-22">
          <mxGeometry relative="1" as="geometry" />
        </mxCell>
        <mxCell id="kLrHRbWmEp7JiRQYxrCo-2" value="" style="strokeWidth=2;html=1;shape=mxgraph.flowchart.start_2;whiteSpace=wrap;fillColor=#000000;" vertex="1" parent="WIyWlLk6GJQsqaUBKTNV-1">
          <mxGeometry x="390" y="-200" width="20" height="20" as="geometry" />
        </mxCell>
        <mxCell id="kLrHRbWmEp7JiRQYxrCo-8" style="edgeStyle=orthogonalEdgeStyle;rounded=0;orthogonalLoop=1;jettySize=auto;html=1;entryX=0.5;entryY=0;entryDx=0;entryDy=0;" edge="1" parent="WIyWlLk6GJQsqaUBKTNV-1" source="kLrHRbWmEp7JiRQYxrCo-5" target="kLrHRbWmEp7JiRQYxrCo-7">
          <mxGeometry relative="1" as="geometry" />
        </mxCell>
        <mxCell id="kLrHRbWmEp7JiRQYxrCo-5" value="Cheeps with their associated information. Follow/Unfollow buttons displayed next to users&#39; names" style="rounded=1;whiteSpace=wrap;html=1;arcSize=40;fontSize=12;glass=0;strokeWidth=1;shadow=0;fillColor=#eeeeee;strokeColor=#36393d;" vertex="1" parent="WIyWlLk6GJQsqaUBKTNV-1">
          <mxGeometry x="285" y="180" width="230" height="60" as="geometry" />
        </mxCell>
        <mxCell id="kLrHRbWmEp7JiRQYxrCo-10" style="edgeStyle=orthogonalEdgeStyle;rounded=0;orthogonalLoop=1;jettySize=auto;html=1;entryX=0.5;entryY=0;entryDx=0;entryDy=0;" edge="1" parent="WIyWlLk6GJQsqaUBKTNV-1" source="kLrHRbWmEp7JiRQYxrCo-7" target="kLrHRbWmEp7JiRQYxrCo-9">
          <mxGeometry relative="1" as="geometry" />
        </mxCell>
        <mxCell id="kLrHRbWmEp7JiRQYxrCo-7" value="Press Follow" style="rounded=1;whiteSpace=wrap;html=1;arcSize=40;fontSize=12;glass=0;strokeWidth=1;shadow=0;fillColor=#eeeeee;strokeColor=#36393d;" vertex="1" parent="WIyWlLk6GJQsqaUBKTNV-1">
          <mxGeometry x="340" y="280" width="120" height="40" as="geometry" />
        </mxCell>
        <mxCell id="kLrHRbWmEp7JiRQYxrCo-12" style="edgeStyle=orthogonalEdgeStyle;rounded=0;orthogonalLoop=1;jettySize=auto;html=1;entryX=0.5;entryY=0;entryDx=0;entryDy=0;" edge="1" parent="WIyWlLk6GJQsqaUBKTNV-1" source="kLrHRbWmEp7JiRQYxrCo-9" target="kLrHRbWmEp7JiRQYxrCo-11">
          <mxGeometry relative="1" as="geometry" />
        </mxCell>
        <mxCell id="kLrHRbWmEp7JiRQYxrCo-9" value="Button now displays Unfollow" style="rounded=1;whiteSpace=wrap;html=1;arcSize=40;fontSize=12;glass=0;strokeWidth=1;shadow=0;fillColor=#eeeeee;strokeColor=#36393d;" vertex="1" parent="WIyWlLk6GJQsqaUBKTNV-1">
          <mxGeometry x="340" y="360" width="120" height="40" as="geometry" />
        </mxCell>
        <mxCell id="kLrHRbWmEp7JiRQYxrCo-14" style="edgeStyle=orthogonalEdgeStyle;rounded=0;orthogonalLoop=1;jettySize=auto;html=1;entryX=0.5;entryY=0;entryDx=0;entryDy=0;" edge="1" parent="WIyWlLk6GJQsqaUBKTNV-1" source="kLrHRbWmEp7JiRQYxrCo-11" target="kLrHRbWmEp7JiRQYxrCo-13">
          <mxGeometry relative="1" as="geometry" />
        </mxCell>
        <mxCell id="kLrHRbWmEp7JiRQYxrCo-11" value="Press My timeline&amp;nbsp;" style="rounded=1;whiteSpace=wrap;html=1;arcSize=40;fontSize=12;glass=0;strokeWidth=1;shadow=0;fillColor=#eeeeee;strokeColor=#36393d;" vertex="1" parent="WIyWlLk6GJQsqaUBKTNV-1">
          <mxGeometry x="340" y="440" width="120" height="40" as="geometry" />
        </mxCell>
        <mxCell id="kLrHRbWmEp7JiRQYxrCo-16" style="edgeStyle=orthogonalEdgeStyle;rounded=0;orthogonalLoop=1;jettySize=auto;html=1;entryX=0.5;entryY=0;entryDx=0;entryDy=0;" edge="1" parent="WIyWlLk6GJQsqaUBKTNV-1" source="kLrHRbWmEp7JiRQYxrCo-13" target="kLrHRbWmEp7JiRQYxrCo-15">
          <mxGeometry relative="1" as="geometry" />
        </mxCell>
        <mxCell id="kLrHRbWmEp7JiRQYxrCo-13" value="Displays cheeps written by the logged in user and by users this user follows" style="rounded=1;whiteSpace=wrap;html=1;arcSize=40;fontSize=12;glass=0;strokeWidth=1;shadow=0;fillColor=#eeeeee;strokeColor=#36393d;" vertex="1" parent="WIyWlLk6GJQsqaUBKTNV-1">
          <mxGeometry x="307.5" y="520" width="185" height="50" as="geometry" />
        </mxCell>
        <mxCell id="kLrHRbWmEp7JiRQYxrCo-18" style="edgeStyle=orthogonalEdgeStyle;rounded=0;orthogonalLoop=1;jettySize=auto;html=1;entryX=0.5;entryY=0;entryDx=0;entryDy=0;" edge="1" parent="WIyWlLk6GJQsqaUBKTNV-1" source="kLrHRbWmEp7JiRQYxrCo-15" target="kLrHRbWmEp7JiRQYxrCo-17">
          <mxGeometry relative="1" as="geometry" />
        </mxCell>
        <mxCell id="kLrHRbWmEp7JiRQYxrCo-15" value="Press Unfollow" style="rounded=1;whiteSpace=wrap;html=1;arcSize=40;fontSize=12;glass=0;strokeWidth=1;shadow=0;fillColor=#eeeeee;strokeColor=#36393d;" vertex="1" parent="WIyWlLk6GJQsqaUBKTNV-1">
          <mxGeometry x="340" y="600" width="120" height="40" as="geometry" />
        </mxCell>
        <mxCell id="kLrHRbWmEp7JiRQYxrCo-17" value="Cheeps by unfollowed author disappear from My timeline" style="rounded=1;whiteSpace=wrap;html=1;arcSize=40;fontSize=12;glass=0;strokeWidth=1;shadow=0;fillColor=#eeeeee;strokeColor=#36393d;" vertex="1" parent="WIyWlLk6GJQsqaUBKTNV-1">
          <mxGeometry x="325" y="680" width="150" height="50" as="geometry" />
        </mxCell>
        <mxCell id="kLrHRbWmEp7JiRQYxrCo-19" value="" style="strokeWidth=2;html=1;shape=mxgraph.flowchart.start_2;whiteSpace=wrap;fillColor=#FFFFFF;" vertex="1" parent="WIyWlLk6GJQsqaUBKTNV-1">
          <mxGeometry x="390" y="760" width="20" height="20" as="geometry" />
        </mxCell>
        <mxCell id="kLrHRbWmEp7JiRQYxrCo-20" value="" style="strokeWidth=2;html=1;shape=mxgraph.flowchart.start_2;whiteSpace=wrap;fillColor=#000000;" vertex="1" parent="WIyWlLk6GJQsqaUBKTNV-1">
          <mxGeometry x="395" y="765" width="10" height="10" as="geometry" />
        </mxCell>
        <mxCell id="kLrHRbWmEp7JiRQYxrCo-21" style="edgeStyle=orthogonalEdgeStyle;rounded=0;orthogonalLoop=1;jettySize=auto;html=1;entryX=0.5;entryY=0;entryDx=0;entryDy=0;entryPerimeter=0;" edge="1" parent="WIyWlLk6GJQsqaUBKTNV-1" source="kLrHRbWmEp7JiRQYxrCo-17" target="kLrHRbWmEp7JiRQYxrCo-19">
          <mxGeometry relative="1" as="geometry" />
        </mxCell>
        <mxCell id="kLrHRbWmEp7JiRQYxrCo-25" style="edgeStyle=orthogonalEdgeStyle;rounded=0;orthogonalLoop=1;jettySize=auto;html=1;" edge="1" parent="WIyWlLk6GJQsqaUBKTNV-1" source="kLrHRbWmEp7JiRQYxrCo-22" target="kLrHRbWmEp7JiRQYxrCo-23">
          <mxGeometry relative="1" as="geometry" />
        </mxCell>
        <mxCell id="kLrHRbWmEp7JiRQYxrCo-22" value="Display public timeline" style="rounded=1;whiteSpace=wrap;html=1;arcSize=40;fontSize=12;glass=0;strokeWidth=1;shadow=0;fillColor=#eeeeee;strokeColor=#36393d;" vertex="1" parent="WIyWlLk6GJQsqaUBKTNV-1">
          <mxGeometry x="340" y="-140" width="120" height="40" as="geometry" />
        </mxCell>
        <mxCell id="kLrHRbWmEp7JiRQYxrCo-23" value="Login" style="rounded=1;whiteSpace=wrap;html=1;arcSize=40;fontSize=12;glass=0;strokeWidth=1;shadow=0;fillColor=#eeeeee;strokeColor=#36393d;" vertex="1" parent="WIyWlLk6GJQsqaUBKTNV-1">
          <mxGeometry x="340" y="-70" width="120" height="40" as="geometry" />
        </mxCell>
        <mxCell id="kLrHRbWmEp7JiRQYxrCo-28" style="edgeStyle=orthogonalEdgeStyle;rounded=0;orthogonalLoop=1;jettySize=auto;html=1;entryX=0.5;entryY=0;entryDx=0;entryDy=0;" edge="1" parent="WIyWlLk6GJQsqaUBKTNV-1" source="kLrHRbWmEp7JiRQYxrCo-24" target="WIyWlLk6GJQsqaUBKTNV-3">
          <mxGeometry relative="1" as="geometry" />
        </mxCell>
        <mxCell id="kLrHRbWmEp7JiRQYxrCo-30" style="edgeStyle=orthogonalEdgeStyle;rounded=0;orthogonalLoop=1;jettySize=auto;html=1;exitX=1;exitY=0.5;exitDx=0;exitDy=0;exitPerimeter=0;entryX=1;entryY=0.5;entryDx=0;entryDy=0;" edge="1" parent="WIyWlLk6GJQsqaUBKTNV-1" source="kLrHRbWmEp7JiRQYxrCo-24" target="kLrHRbWmEp7JiRQYxrCo-22">
          <mxGeometry relative="1" as="geometry">
            <Array as="points">
              <mxPoint x="490" y="25" />
              <mxPoint x="490" y="-120" />
            </Array>
          </mxGeometry>
        </mxCell>
        <mxCell id="kLrHRbWmEp7JiRQYxrCo-24" value="Succesful?" style="strokeWidth=1;html=1;shape=mxgraph.flowchart.decision;whiteSpace=wrap;fillColor=#eeeeee;strokeColor=#36393d;" vertex="1" parent="WIyWlLk6GJQsqaUBKTNV-1">
          <mxGeometry x="350" width="100" height="50" as="geometry" />
        </mxCell>
        <mxCell id="kLrHRbWmEp7JiRQYxrCo-26" style="edgeStyle=orthogonalEdgeStyle;rounded=0;orthogonalLoop=1;jettySize=auto;html=1;entryX=0.5;entryY=0;entryDx=0;entryDy=0;entryPerimeter=0;" edge="1" parent="WIyWlLk6GJQsqaUBKTNV-1" source="kLrHRbWmEp7JiRQYxrCo-23" target="kLrHRbWmEp7JiRQYxrCo-24">
          <mxGeometry relative="1" as="geometry" />
        </mxCell>
        <mxCell id="kLrHRbWmEp7JiRQYxrCo-29" value="Yes" style="text;html=1;align=center;verticalAlign=middle;whiteSpace=wrap;rounded=0;" vertex="1" parent="WIyWlLk6GJQsqaUBKTNV-1">
          <mxGeometry x="390" y="50" width="60" height="30" as="geometry" />
        </mxCell>
        <mxCell id="kLrHRbWmEp7JiRQYxrCo-31" value="No" style="text;html=1;align=center;verticalAlign=middle;whiteSpace=wrap;rounded=0;" vertex="1" parent="WIyWlLk6GJQsqaUBKTNV-1">
          <mxGeometry x="440" width="60" height="30" as="geometry" />
        </mxCell>
      </root>
    </mxGraphModel>
  </diagram>
</mxfile>
